<?xml version="1.0" standalone="no"?>
<!DOCTYPE svg PUBLIC "-//W3C//DTD SVG 20010904//EN"
 "http://www.w3.org/TR/2001/REC-SVG-20010904/DTD/svg10.dtd">
<svg version="1.0" xmlns="http://www.w3.org/2000/svg"
 width="1080.000000pt" height="1080.000000pt" viewBox="0 0 1080.000000 1080.000000"
 preserveAspectRatio="xMidYMid meet">

<g transform="translate(0.000000,1080.000000) scale(0.100000,-0.100000)"
fill="#000000" stroke="none">
<path d="M5200 10278 c-137 -78 -137 -78 -237 -78 -67 0 -103 -5 -125 -16
l-31 -16 5 -196 c3 -109 3 -202 1 -208 -3 -8 -18 -10 -42 -7 -70 10 -151 -56
-151 -123 0 -44 22 -97 54 -129 22 -22 34 -25 92 -25 l67 0 -7 -46 c-3 -26 -6
-52 -6 -58 0 -6 -22 -12 -51 -13 -66 -3 -113 -37 -130 -93 -29 -97 38 -168
148 -157 l54 6 -3 -42 c-3 -40 -4 -42 -38 -43 -19 -1 -45 -2 -58 -3 -13 0 -37
-14 -53 -30 -24 -24 -29 -38 -29 -76 0 -52 21 -99 49 -115 11 -5 49 -10 84
-10 l64 0 64 -112 64 -113 8 -795 c4 -437 5 -936 2 -1108 l-6 -313 63 7 c35 4
64 8 66 9 6 5 3 2320 -4 2385 -6 63 -9 71 -30 76 -49 12 -64 48 -64 150 0 85
2 95 26 123 l26 31 -31 42 c-30 41 -31 45 -31 149 0 73 4 110 13 117 6 5 34
16 60 24 l48 14 -50 22 c-71 33 -76 41 -76 144 0 77 3 91 19 104 26 19 90 18
106 -1 16 -20 31 -188 21 -235 -5 -24 -3 -42 6 -56 17 -26 18 -160 15 -1809
-1 -643 1 -1188 5 -1210 8 -54 28 -68 57 -39 14 14 16 126 16 1080 0 967 1
1065 16 1071 9 3 20 0 25 -8 5 -8 9 -468 9 -1051 0 -570 3 -1043 6 -1052 4
-10 18 -16 40 -16 l34 0 1 1068 c0 1280 6 1538 39 1892 5 53 7 112 4 131 -3
19 -1 75 5 125 13 108 30 129 98 121 24 -2 50 -10 58 -17 16 -13 19 -75 7
-165 -6 -43 -11 -52 -38 -65 -43 -21 -79 -49 -72 -55 3 -3 28 -11 54 -18 l49
-12 3 -111 c3 -110 2 -111 -28 -149 -38 -48 -39 -80 -2 -97 26 -13 27 -17 30
-98 2 -47 -1 -101 -7 -120 -28 -94 -32 -207 -32 -850 1 -366 4 -876 7 -1134
l7 -468 33 -14 c67 -28 62 -65 68 504 3 284 6 531 6 547 0 17 -3 282 -6 590
l-5 560 32 60 c18 33 41 77 52 98 18 35 22 37 67 37 66 0 96 13 120 52 54 89
-7 181 -109 164 -34 -5 -39 -3 -45 17 -3 12 -6 36 -6 52 0 30 0 30 59 30 52 0
63 4 91 30 44 42 56 96 33 143 -27 55 -78 85 -130 77 l-43 -6 0 69 0 68 59 -4
c56 -4 61 -2 96 30 32 29 38 42 43 86 6 63 -10 105 -50 134 -25 17 -39 20 -89
15 l-59 -5 0 193 c0 107 -4 205 -9 218 -13 33 -40 41 -141 42 l-85 0 -100 58
c-122 70 -160 74 -245 25z m80 -282 c0 -14 -5 -28 -10 -31 -13 -8 -24 20 -16
40 9 24 26 17 26 -9z m60 -12 c0 -19 -16 -18 -24 2 -11 27 -7 37 9 24 8 -7 15
-19 15 -26z m50 5 c0 -11 -4 -17 -10 -14 -5 3 -10 15 -10 26 0 11 5 17 10 14
6 -3 10 -15 10 -26z m70 19 c0 -7 -5 -20 -10 -28 -8 -12 -10 -11 -10 7 0 12
-8 24 -17 26 -11 3 -7 5 10 6 16 1 27 -4 27 -11z m80 3 c0 -16 -12 -41 -19
-41 -6 0 -7 32 -2 48 3 7 21 1 21 -7z m-518 -13 c-5 -7 -12 -22 -15 -33 -3
-13 -5 -9 -6 13 -1 23 3 32 15 32 12 0 14 -3 6 -12z m75 -4 c3 -8 1 -20 -6
-27 -13 -13 -16 -10 -25 21 -6 16 -3 22 9 22 8 0 18 -7 22 -16z m63 7 c0 -17
-12 -41 -21 -41 -5 0 -9 11 -9 25 0 16 6 25 15 25 8 0 15 -4 15 -9z m58 -13
c-2 -13 -7 -23 -13 -23 -5 0 -11 10 -13 23 -2 15 2 22 13 22 11 0 15 -7 13
-22z m352 -8 c-18 -11 -24 -6 -16 16 5 14 9 15 19 5 9 -9 9 -14 -3 -21z m-76
-1 c-3 -5 -10 -7 -15 -3 -5 3 -7 10 -3 15 3 5 10 7 15 3 5 -3 7 -10 3 -15z
m114 -14 c-3 -3 -9 2 -12 12 -6 14 -5 15 5 6 7 -7 10 -15 7 -18z m-800 -326
c4 -19 -27 -34 -41 -20 -14 14 0 43 20 39 10 -2 19 -10 21 -19z m1037 1 c9
-15 -14 -40 -36 -40 -24 0 -25 26 -1 39 22 13 29 13 37 1z m-1037 -372 c19
-19 14 -28 -18 -28 -18 0 -30 5 -30 13 0 28 27 36 48 15z m1022 -13 c0 -9 -9
-15 -25 -15 -24 0 -32 10 -18 23 12 13 43 7 43 -8z m5 -336 c0 -8 -10 -15 -22
-17 -25 -4 -33 22 -10 31 18 8 32 2 32 -14z"/>
<path d="M2771 10081 c-22 -40 -13 -61 34 -81 26 -11 45 -26 45 -35 0 -22 -46
-38 -72 -24 -16 9 -19 8 -16 -7 8 -43 75 -43 104 1 23 35 11 69 -30 89 -57 27
-60 47 -9 50 45 2 42 21 -4 24 -33 2 -44 -1 -52 -17z"/>
<path d="M2677 10064 c-3 -4 0 -16 8 -28 21 -29 19 -49 -10 -80 -33 -36 -86
-36 -114 1 -23 29 -36 26 -26 -6 3 -11 26 -29 50 -41 48 -23 64 -20 101 22 38
42 43 60 27 101 -15 36 -23 43 -36 31z"/>
<path d="M4340 9850 c-471 -99 -945 -278 -1367 -516 -225 -127 -334 -203 -648
-453 -366 -293 -775 -792 -1051 -1286 -93 -168 -219 -426 -272 -562 -161 -407
-283 -914 -334 -1388 -17 -156 -17 -660 0 -830 57 -569 221 -1141 468 -1626
148 -292 262 -474 432 -694 570 -735 1099 -1153 1885 -1489 477 -204 940 -312
1550 -361 446 -36 836 -11 1282 81 466 96 816 217 1225 422 309 155 619 360
860 567 249 214 644 647 824 903 178 253 338 533 427 748 121 291 145 354 195
517 179 587 252 1169 214 1692 -44 594 -230 1287 -477 1779 -208 415 -466 779
-831 1175 -98 105 -293 289 -368 345 -22 17 -84 67 -137 112 -334 280 -835
548 -1374 735 -145 50 -485 135 -596 149 -98 12 -227 13 -227 2 0 -5 14 -21
31 -38 40 -37 52 -60 58 -109 l6 -39 120 -18 c222 -34 540 -121 745 -205 543
-223 819 -383 1180 -682 313 -260 771 -760 937 -1026 239 -381 334 -560 419
-790 25 -66 51 -136 59 -157 28 -71 117 -395 147 -528 100 -458 112 -560 112
-970 0 -326 -5 -399 -46 -710 -21 -159 -71 -407 -86 -422 -5 -5 -243 -10 -531
-13 -287 -2 -526 -7 -530 -10 -5 -3 -37 -71 -71 -153 -236 -557 -581 -1010
-1080 -1414 -98 -79 -385 -254 -570 -347 -268 -135 -454 -207 -740 -285 -82
-22 -411 -83 -530 -98 -138 -17 -573 -17 -710 0 -273 34 -572 109 -802 201
-378 152 -584 265 -875 482 -374 279 -638 563 -884 957 -102 162 -243 442
-286 565 -16 44 -36 83 -46 89 -12 6 -219 10 -550 11 l-532 2 -27 130 c-103
496 -127 980 -72 1435 61 513 222 1068 438 1515 63 131 239 443 299 530 205
299 450 593 645 774 360 334 819 641 1214 813 292 126 657 240 928 289 83 15
90 18 90 42 0 47 22 97 60 136 22 23 40 43 40 46 0 13 -118 1 -240 -25z
m-1978 -6676 c52 -93 45 -170 -27 -313 -18 -36 -36 -76 -40 -89 -7 -23 -6 -23
42 -17 95 13 194 36 238 55 l44 19 55 -64 c31 -35 56 -68 56 -74 0 -5 -33 -36
-72 -68 -68 -53 -354 -315 -406 -370 -12 -14 -26 -23 -30 -21 -4 2 -29 26 -55
54 -30 33 -45 57 -41 67 3 8 33 38 67 67 80 67 200 181 195 185 -1 1 -46 -3
-98 -11 -123 -17 -221 -18 -244 -1 -17 12 -13 23 59 161 42 81 75 149 73 151
-4 4 -155 -89 -271 -167 -49 -33 -92 -56 -96 -52 -4 5 -24 39 -44 76 l-36 67
82 40 c45 22 126 71 179 108 53 37 138 97 188 132 51 36 101 77 113 93 12 16
26 27 32 25 5 -2 22 -26 37 -53z m6012 -145 c25 -22 46 -45 46 -51 0 -11 -80
-105 -173 -204 -77 -81 -78 -90 -13 -139 l34 -26 49 52 c26 28 70 80 96 115
27 35 52 64 57 64 16 0 110 -63 110 -74 0 -6 -36 -56 -80 -111 -109 -137 -109
-135 -74 -179 16 -20 34 -36 40 -36 5 0 48 37 95 83 56 56 97 108 124 156 35
65 41 72 64 66 27 -7 111 -64 111 -76 0 -23 -114 -170 -249 -319 l-153 -171
-33 48 c-68 99 -347 344 -445 390 -30 14 -57 27 -59 29 -2 2 36 45 85 96 49
51 133 146 187 211 60 71 105 117 116 117 10 0 39 -18 65 -41z m-5437 -504
c29 -30 53 -58 53 -63 0 -4 -14 -21 -31 -38 -46 -43 -148 -169 -207 -253 -45
-64 -52 -81 -52 -122 0 -41 4 -51 34 -77 43 -37 68 -46 111 -38 39 8 83 54
175 184 33 48 78 109 101 136 22 27 46 58 54 70 l15 20 16 -23 c17 -23 55 -60
90 -85 17 -13 15 -18 -47 -83 -35 -38 -77 -91 -93 -118 -77 -134 -156 -219
-231 -251 -46 -19 -160 -18 -218 2 -62 21 -144 96 -173 159 -33 70 -31 127 6
201 30 60 175 249 260 339 26 28 52 61 59 73 6 12 15 22 18 22 4 0 30 -25 60
-55z m4982 -103 c56 -26 106 -83 119 -135 7 -25 12 -84 12 -130 l0 -83 33 -16
c17 -8 57 -23 88 -32 88 -25 92 -37 33 -97 -63 -65 -115 -93 -135 -74 -8 7
-47 31 -88 53 l-73 40 -34 -20 c-19 -11 -34 -28 -34 -38 0 -10 18 -48 40 -84
22 -36 40 -69 40 -74 0 -8 -141 -105 -145 -99 -1 1 -20 36 -41 77 -21 41 -64
109 -95 150 -30 41 -72 102 -93 135 -21 32 -69 90 -107 127 -61 60 -68 70 -57
87 15 25 303 218 343 231 41 13 151 3 194 -18z m-4262 -367 c28 -14 84 -56
124 -93 l74 -67 -62 -62 c-35 -35 -63 -59 -63 -54 0 16 -52 72 -94 102 -22 17
-52 29 -69 29 -34 0 -67 -25 -67 -50 0 -18 52 -67 129 -123 24 -18 58 -49 75
-70 27 -33 31 -48 34 -110 4 -68 2 -75 -30 -122 -19 -28 -54 -62 -82 -80 -43
-26 -59 -30 -120 -30 -101 1 -194 49 -293 153 -40 41 -73 81 -73 88 0 7 10 18
23 25 12 6 39 27 59 47 21 20 39 34 41 31 2 -2 19 -26 39 -54 68 -94 209 -154
251 -107 10 11 17 28 15 38 -2 10 -44 48 -93 86 -68 51 -97 80 -117 119 -34
63 -37 132 -8 188 38 76 139 138 226 140 16 1 53 -10 81 -24z m3576 -79 c87
-44 171 -114 196 -165 33 -65 46 -144 32 -203 -23 -103 -104 -215 -192 -263
-51 -28 -61 -30 -164 -30 -97 0 -115 3 -155 24 -63 34 -152 131 -196 214 -34
65 -36 74 -32 137 9 122 95 241 221 305 46 24 61 26 134 23 71 -4 93 -10 156
-42z m-3063 -155 c36 -18 66 -34 68 -36 1 -1 -4 -15 -12 -31 -8 -16 -44 -128
-81 -248 -36 -121 -72 -231 -79 -245 -8 -14 -19 -52 -27 -84 -11 -52 -15 -58
-33 -52 -12 4 -48 13 -81 22 -33 8 -62 16 -64 18 -2 3 6 30 17 62 11 32 48
148 82 258 53 173 77 243 121 353 5 13 13 22 17 20 4 -2 36 -18 72 -37z m2408
-50 c28 -84 29 -83 -57 -100 -31 -6 -62 -15 -70 -20 -15 -10 -15 -10 93 -374
l44 -148 -27 -11 c-52 -20 -104 -38 -111 -38 -9 0 -58 147 -90 265 -11 44 -33
119 -47 168 -30 100 -30 100 -135 67 -34 -11 -66 -20 -69 -20 -4 0 -10 17 -14
37 -4 20 -15 54 -26 74 -21 42 -20 43 36 54 63 11 318 83 372 104 26 11 54 18
62 18 8 -1 25 -33 39 -76z m-1802 -86 c49 -14 172 -86 186 -108 7 -11 -9 -36
-64 -101 l-34 -38 -35 35 c-58 58 -153 71 -231 31 -16 -8 -42 -36 -59 -62 -47
-74 -39 -179 20 -246 52 -59 155 -72 237 -31 l49 25 47 -53 46 -52 -30 -32
c-62 -65 -184 -96 -291 -73 -156 32 -290 199 -290 360 1 156 99 284 260 339
70 24 122 26 189 6z m1089 -33 c70 -37 68 -33 43 -88 -37 -78 -36 -78 -66 -57
-38 25 -148 25 -185 0 -38 -25 -44 -45 -20 -69 16 -15 41 -21 122 -28 123 -11
194 -39 236 -95 73 -95 24 -248 -102 -322 -66 -38 -174 -44 -275 -13 -62 18
-158 63 -158 74 0 2 22 27 50 56 l50 52 47 -23 c37 -17 66 -23 125 -23 72 -1
79 1 107 28 36 35 37 37 13 66 -14 17 -36 24 -123 35 -154 20 -199 42 -250
123 -51 81 -34 161 50 231 83 69 119 82 221 77 53 -2 87 -9 115 -24z"/>
<path d="M7725 2254 c-16 -8 -47 -29 -68 -47 l-37 -32 25 -51 c14 -28 35 -60
48 -72 23 -21 25 -22 71 -6 28 10 68 35 94 60 41 40 44 46 39 81 -12 74 -95
106 -172 67z"/>
<path d="M6980 1830 c-20 -12 -46 -37 -59 -56 -20 -29 -23 -43 -19 -98 5 -80
37 -133 105 -173 140 -82 323 37 284 184 -30 111 -219 198 -311 143z"/>
<path d="M2170 9688 c-33 -35 -26 -63 22 -90 51 -28 56 -42 24 -63 -23 -15
-26 -15 -50 0 -34 23 -34 2 0 -24 35 -27 46 -26 78 6 39 39 32 72 -21 101 -24
13 -43 30 -43 37 0 17 31 28 54 19 10 -4 16 -1 16 9 0 32 -51 35 -80 5z"/>
<path d="M2076 9615 c11 -60 -46 -104 -106 -83 -17 5 -34 7 -38 3 -13 -13 32
-35 74 -35 35 0 47 5 67 30 33 39 40 61 28 94 -16 39 -33 33 -25 -9z"/>
<path d="M6254 9383 c-12 -2 -30 -13 -39 -23 -15 -17 -16 -24 -5 -50 20 -48
63 -74 111 -66 21 3 56 9 77 12 33 5 41 2 74 -29 35 -32 98 -57 148 -57 11 0
34 -10 51 -22 21 -16 48 -23 97 -26 62 -4 69 -7 95 -38 35 -41 85 -54 122 -30
35 23 32 58 -6 90 -32 28 -67 33 -100 15 -17 -9 -27 -5 -59 25 -22 20 -57 39
-82 45 -24 6 -77 22 -118 36 -79 26 -125 31 -149 16 -9 -6 -28 1 -60 24 -73
52 -134 82 -157 78z"/>
<path d="M9070 9180 l0 -170 -56 0 c-50 0 -59 -3 -90 -34 -29 -29 -34 -41 -34
-80 0 -36 6 -52 31 -81 28 -31 36 -35 80 -35 42 0 55 5 87 34 37 34 37 35 43
133 4 54 7 155 8 224 1 125 1 125 -27 152 -15 15 -31 27 -35 27 -4 0 -7 -76
-7 -170z"/>
<path d="M4230 9323 c-27 -10 -60 -46 -60 -65 0 -25 56 -48 114 -48 49 0 76
24 76 67 0 41 -73 67 -130 46z"/>
<path d="M4000 9294 c-6 -14 -10 -28 -10 -32 0 -3 -14 -21 -32 -39 -17 -18
-30 -34 -27 -36 2 -2 26 -16 53 -31 42 -25 55 -27 101 -21 49 6 53 8 59 37 12
61 7 74 -41 112 -56 43 -89 47 -103 10z"/>
<path d="M3757 9223 c-3 -5 -10 -34 -17 -67 l-12 -58 -36 6 c-21 3 -49 8 -64
12 -24 5 -30 1 -58 -42 -30 -48 -32 -49 -88 -54 -63 -6 -78 -25 -46 -61 22
-25 58 -24 100 2 24 15 47 20 80 18 42 -3 47 -1 66 31 12 19 28 46 35 59 l15
23 26 -25 c15 -13 37 -30 50 -37 20 -10 26 -9 38 7 21 26 34 60 34 88 0 44
-106 127 -123 98z"/>
<path d="M7155 9095 c-58 -20 -85 -56 -85 -111 0 -89 51 -144 134 -144 64 0
112 28 132 75 30 73 7 142 -60 175 -49 23 -67 24 -121 5z m107 -82 c25 -23 23
-59 -7 -88 -30 -31 -55 -32 -82 -2 -28 30 -36 62 -23 87 14 26 85 28 112 3z"/>
<path d="M9332 9017 c-26 -27 -32 -41 -32 -76 0 -36 6 -49 34 -77 28 -28 41
-34 78 -34 44 0 108 30 108 51 0 13 -138 169 -149 169 -4 0 -21 -15 -39 -33z"/>
<path d="M6060 8988 c0 -18 -3 -42 -5 -53 -3 -11 -2 -25 3 -32 4 -6 83 -32
176 -58 93 -25 197 -57 230 -71 34 -14 77 -30 96 -36 137 -40 467 -203 625
-308 39 -26 116 -77 172 -114 222 -148 558 -494 791 -814 80 -110 130 -162
158 -162 41 0 84 12 84 24 0 17 -103 177 -164 256 -222 286 -484 565 -666 710
-232 184 -578 388 -855 504 -214 89 -533 186 -615 186 -27 0 -30 -3 -30 -32z"/>
<path d="M4264 8931 c-448 -153 -659 -261 -1010 -517 -403 -294 -674 -592
-955 -1048 -143 -232 -357 -677 -326 -675 7 0 39 10 72 22 l59 22 108 214 c99
198 148 280 315 531 200 302 428 546 708 757 96 72 330 229 400 268 143 80
181 99 315 158 127 56 409 157 525 187 64 16 65 18 58 93 -5 53 -9 67 -22 67
-10 0 -121 -35 -247 -79z"/>
<path d="M7480 8963 c-61 -22 -64 -70 -10 -149 22 -33 40 -62 40 -66 0 -19
-39 -5 -65 22 -36 38 -69 37 -73 -2 -9 -77 101 -137 168 -91 35 24 40 33 40
76 0 27 -9 52 -31 83 -17 25 -28 48 -25 51 4 4 22 -1 41 -10 49 -23 65 -22 65
7 0 35 -62 86 -103 85 -18 0 -39 -3 -47 -6z"/>
<path d="M2961 8901 l-24 -19 16 -53 c9 -30 24 -97 33 -149 22 -128 40 -158
89 -146 21 5 25 12 25 46 0 37 4 43 48 71 62 39 90 46 105 25 15 -20 53 -10
77 19 17 21 5 32 -120 106 -47 28 -106 67 -131 85 -53 38 -83 42 -118 15z
m141 -118 c23 -20 23 -36 0 -56 -24 -22 -42 -5 -42 40 0 36 14 42 42 16z"/>
<path d="M5460 8872 c-6 -15 -16 -54 -21 -87 -10 -68 -12 -1976 -3 -2192 7
-140 7 -142 32 -148 14 -3 29 -2 33 2 13 13 12 2407 -1 2411 -5 2 -10 10 -10
17 0 26 -17 24 -30 -3z"/>
<path d="M6197 8788 c-24 -32 -55 -99 -182 -383 -34 -77 -85 -187 -113 -244
-52 -105 -96 -229 -90 -257 2 -9 23 29 47 83 25 54 73 157 109 228 35 72 91
191 124 265 33 74 82 177 109 228 46 85 53 112 29 112 -5 0 -20 -15 -33 -32z
m-16 -75 c-12 -20 -14 -14 -5 12 4 9 9 14 11 11 3 -2 0 -13 -6 -23z"/>
<path d="M4497 8793 c-9 -8 -2 -35 49 -195 37 -118 53 -151 112 -240 38 -57
88 -141 110 -188 22 -47 48 -94 57 -105 15 -19 16 -18 9 15 -8 48 -76 191
-125 267 -46 70 -127 254 -158 360 -20 68 -41 100 -54 86z"/>
<path d="M6038 8775 c-10 -13 -15 -31 -12 -40 4 -9 2 -15 -5 -13 -6 2 -45 -69
-86 -157 -42 -88 -94 -196 -116 -241 -36 -75 -50 -134 -31 -134 12 0 46 64 82
155 17 44 67 154 111 244 80 166 98 211 83 211 -5 0 -17 -11 -26 -25z"/>
<path d="M4330 8764 c0 -21 50 -145 93 -229 40 -79 46 -86 46 -58 1 18 -3 42
-8 55 -5 13 -23 60 -41 104 -18 47 -44 93 -61 110 -16 15 -29 24 -29 18z"/>
<path d="M6348 8723 c-14 -16 -37 -47 -51 -70 -52 -83 -222 -432 -214 -439 11
-11 96 101 146 192 90 164 170 328 165 336 -9 14 -19 9 -46 -19z"/>
<path d="M4185 8678 c9 -28 82 -168 117 -224 28 -44 63 -57 54 -20 -10 39
-116 231 -137 249 -29 23 -42 21 -34 -5z"/>
<path d="M6504 8652 c-17 -26 -57 -87 -89 -137 -32 -49 -80 -120 -106 -157
-42 -57 -46 -68 -30 -68 22 0 64 49 138 160 95 143 133 206 133 223 0 32 -16
25 -46 -21z"/>
<path d="M7730 8641 c-19 -37 -11 -60 31 -91 60 -43 79 -47 101 -20 25 31 23
52 -9 82 -55 51 -105 62 -123 29z"/>
<path d="M4048 8644 c-6 -10 28 -85 72 -159 17 -27 42 -74 56 -104 28 -60 110
-191 120 -191 6 0 -5 57 -16 80 -4 8 -13 27 -20 42 -7 15 -17 25 -21 22 -5 -3
-7 1 -4 8 3 7 -24 62 -60 122 -36 59 -65 111 -65 115 0 14 -57 74 -62 65z"/>
<path d="M2566 8596 c-20 -18 -36 -41 -36 -51 0 -9 23 -42 51 -73 28 -32 73
-92 101 -134 28 -43 55 -78 60 -78 5 0 39 28 76 63 37 34 93 84 125 111 31 27
57 54 57 62 0 18 -40 44 -68 44 -15 0 -34 -13 -50 -32 -48 -57 -84 -88 -103
-88 -21 0 -81 71 -131 156 -18 30 -36 54 -40 54 -3 0 -23 -15 -42 -34z"/>
<path d="M6668 8589 c-18 -22 -50 -59 -71 -82 -22 -23 -57 -69 -80 -102 -22
-33 -54 -77 -70 -97 -17 -21 -27 -41 -23 -45 11 -11 176 164 176 186 0 31 60
115 73 102 16 -16 47 17 47 51 0 38 -13 35 -52 -13z"/>
<path d="M6859 8507 c-20 -17 -57 -62 -82 -98 -25 -36 -62 -82 -82 -103 -20
-21 -34 -41 -31 -44 16 -15 71 29 132 105 38 47 77 95 87 108 10 12 17 32 15
43 -3 20 -5 20 -39 -11z"/>
<path d="M3985 8480 c3 -5 8 -10 11 -10 2 0 4 5 4 10 0 6 -5 10 -11 10 -5 0
-7 -4 -4 -10z"/>
<path d="M3710 8471 c0 -17 29 -77 54 -110 37 -50 34 -14 -5 60 -29 53 -49 74
-49 50z"/>
<path d="M7003 8414 c-15 -20 -49 -62 -75 -94 -51 -62 -55 -70 -35 -70 17 1
57 36 57 51 0 7 3 10 6 7 9 -9 116 112 111 125 -8 25 -36 17 -64 -19z"/>
<path d="M4028 8434 c-6 -5 76 -153 114 -207 33 -46 32 -23 -1 45 -36 72 -105
171 -113 162z"/>
<path d="M3570 8418 c0 -23 41 -91 92 -154 33 -41 63 -74 65 -74 20 0 -83 164
-132 210 -14 13 -25 21 -25 18z"/>
<path d="M8170 8348 c-24 -13 -53 -35 -63 -50 -47 -63 -25 -214 39 -275 41
-38 85 -49 142 -34 l41 12 -20 34 c-16 27 -28 35 -49 35 -67 0 -106 114 -60
172 25 32 73 42 109 24 38 -20 53 -41 60 -83 8 -47 22 -51 61 -16 32 28 32 29
17 64 -18 45 -71 106 -108 125 -42 21 -118 18 -169 -8z"/>
<path d="M2305 8333 c-57 -38 -146 -125 -143 -139 6 -22 247 -244 266 -244 40
0 57 57 27 96 -8 10 -15 22 -15 27 0 11 45 8 57 -4 9 -9 31 5 88 56 41 37 73
73 70 79 -3 6 -8 19 -11 29 -8 21 -24 21 -85 0 l-49 -18 -45 52 c-38 43 -100
93 -116 93 -3 0 -22 -12 -44 -27z m86 -86 c47 -36 54 -137 10 -137 -24 0 -101
77 -101 100 0 21 35 50 60 50 8 0 22 -6 31 -13z"/>
<path d="M7077 8245 c-105 -112 -121 -145 -41 -86 56 41 174 166 174 185 0 33
-28 12 -133 -99z"/>
<path d="M4520 8328 c1 -19 49 -105 49 -88 1 18 -36 100 -44 100 -3 0 -5 -6
-5 -12z"/>
<path d="M3450 8317 c0 -23 56 -101 101 -141 24 -22 57 -51 72 -65 l29 -26
-24 42 c-27 48 -156 203 -169 203 -5 0 -9 -6 -9 -13z"/>
<path d="M3990 8255 c0 -29 44 -117 69 -139 17 -16 21 -16 21 -4 0 18 -56 127
-76 148 -12 12 -14 12 -14 -5z"/>
<path d="M7293 8218 c-26 -23 -70 -57 -97 -77 -52 -37 -49 -50 9 -31 40 13
155 114 155 136 0 23 -16 16 -67 -28z"/>
<path d="M3310 8214 c0 -16 128 -154 144 -154 5 0 2 8 -7 18 -10 10 -17 23
-17 28 0 5 -20 35 -45 67 -44 56 -75 73 -75 41z"/>
<path d="M4580 8210 c0 -15 81 -179 91 -186 14 -8 11 11 -11 63 -44 103 -80
159 -80 123z"/>
<path d="M6169 8177 c-40 -26 -73 -88 -65 -120 3 -13 23 -42 45 -65 34 -37 43
-42 67 -36 53 12 79 29 82 53 3 22 2 23 -37 16 -77 -13 -120 46 -70 96 16 16
27 19 47 13 52 -14 67 -10 70 15 8 52 -78 69 -139 28z"/>
<path d="M6347 8194 c-11 -11 -8 -173 3 -195 13 -23 61 -49 92 -49 26 0 61 26
76 55 6 11 13 58 17 103 l8 84 -29 -4 c-29 -3 -29 -4 -34 -83 l-5 -80 -32 -3
c-43 -4 -56 22 -51 106 3 61 1 67 -17 70 -12 2 -24 0 -28 -4z"/>
<path d="M6816 8179 c-39 -31 -33 -76 14 -106 19 -12 44 -29 55 -38 19 -15 17
-15 -30 -10 -89 10 -101 -30 -21 -66 71 -31 116 -2 116 73 -1 28 -7 37 -45 60
-57 35 -59 53 -5 44 48 -8 54 11 14 43 -34 27 -64 27 -98 0z"/>
<path d="M6580 8075 c0 -95 3 -115 15 -115 8 0 22 11 31 25 20 30 40 32 47 5
6 -22 49 -42 72 -34 19 8 19 33 0 40 -19 8 -19 33 0 58 26 34 19 81 -16 110
-25 22 -41 26 -90 26 l-59 0 0 -115z m105 51 c24 -18 13 -46 -19 -46 -31 0
-40 14 -26 40 13 24 20 25 45 6z"/>
<path d="M8485 8032 c-106 -91 -135 -126 -135 -165 1 -68 67 -168 128 -194 39
-16 26 -23 206 100 64 43 118 83 122 89 8 13 -40 58 -63 58 -18 0 -135 -85
-177 -129 -37 -39 -48 -39 -80 0 -45 53 -37 73 67 171 l92 88 -30 25 c-16 14
-34 25 -40 25 -5 0 -46 -31 -90 -68z"/>
<path d="M4382 8078 c-16 -20 -87 -160 -100 -197 -10 -28 -15 -32 -34 -27 -13
3 -35 6 -50 6 -26 0 -27 2 -34 80 -3 44 -11 83 -16 86 -23 14 -36 -25 -41
-124 -4 -84 -2 -104 9 -109 30 -11 176 18 214 43 30 20 46 24 91 20 52 -4 55
-5 76 -47 12 -24 29 -65 38 -91 19 -54 40 -77 57 -60 12 12 -28 103 -81 182
-20 30 -27 48 -20 56 7 8 -5 41 -38 103 -26 50 -51 91 -54 91 -4 0 -11 -6 -17
-12z m37 -171 l25 -27 -32 11 c-30 10 -40 27 -25 42 3 4 7 6 7 5 1 -2 12 -15
25 -31z"/>
<path d="M7060 8033 c-51 -35 -66 -77 -49 -137 11 -40 37 -62 91 -77 31 -8 44
-6 77 10 98 51 106 123 21 198 -31 28 -104 31 -140 6z m120 -69 c12 -22 12
-29 0 -51 -24 -41 -46 -51 -78 -33 -19 11 -28 25 -30 48 -4 44 12 62 58 62 29
0 39 -5 50 -26z"/>
<path d="M2007 7995 c-84 -65 -162 -195 -116 -195 6 0 41 -26 78 -58 90 -79
198 -162 211 -162 6 0 20 21 33 46 l22 46 -28 20 c-27 20 -34 51 -18 77 8 12
18 13 62 3 28 -7 53 -11 54 -10 76 108 76 106 -20 110 l-60 3 -6 35 c-9 54
-27 80 -72 101 -60 27 -88 24 -140 -16z m107 -94 c16 -17 16 -21 0 -60 -19
-49 -43 -53 -81 -15 l-25 26 33 34 c38 39 49 41 73 15z"/>
<path d="M7329 8015 c-14 -7 -30 -25 -37 -39 -10 -24 -8 -29 40 -76 54 -53 52
-63 -13 -58 -28 3 -34 -1 -37 -19 -2 -16 5 -26 27 -37 73 -38 135 -1 129 78
-3 36 -8 44 -40 61 -21 11 -36 25 -35 30 2 6 27 12 55 15 l52 5 -25 28 c-29
31 -73 35 -116 12z"/>
<path d="M3172 8000 c-76 -46 -82 -184 -11 -234 41 -28 138 -17 161 18 4 6 8
37 8 68 l0 58 -47 -6 c-62 -8 -74 -20 -45 -44 28 -23 28 -36 1 -43 -14 -4 -29
2 -45 18 -28 28 -30 45 -9 85 14 26 21 29 72 32 69 4 78 23 23 50 -45 23 -67
23 -108 -2z"/>
<path d="M3377 8014 c-11 -11 -8 -183 3 -205 14 -25 62 -49 97 -49 66 0 93 52
93 178 l0 72 -36 0 -36 0 7 -70 c8 -80 -1 -100 -46 -100 -33 0 -38 11 -41 110
-2 49 -7 66 -18 68 -9 1 -19 0 -23 -4z"/>
<path d="M5976 7968 c-31 -50 -126 -232 -126 -243 0 -2 10 0 23 6 20 9 82 106
136 216 42 85 18 100 -33 21z"/>
<path d="M3610 7918 c0 -113 4 -130 36 -145 l24 -11 0 108 c0 126 -4 140 -36
140 -24 0 -24 -2 -24 -92z"/>
<path d="M3692 7978 c3 -29 7 -33 36 -36 l32 -3 0 -80 c0 -78 1 -80 23 -77 19
3 22 10 25 53 4 88 12 116 30 114 34 -3 42 2 42 25 0 31 -15 36 -111 36 l-80
0 3 -32z"/>
<path d="M3899 8008 c0 -2 -1 -51 -2 -110 -3 -97 -1 -108 19 -127 l22 -21 11
45 c13 53 29 56 59 15 25 -33 43 -38 62 -15 11 13 9 20 -10 40 -22 23 -22 28
-11 63 18 53 12 72 -29 93 -28 15 -118 27 -121 17z m98 -64 c3 -9 0 -20 -8
-25 -21 -13 -29 -11 -29 9 0 33 26 44 37 16z"/>
<path d="M7510 7987 l-35 -10 60 -9 c62 -8 95 3 65 22 -19 12 -45 11 -90 -3z"/>
<path d="M6113 7908 c-33 -36 -114 -156 -134 -201 -10 -23 -7 -50 5 -36 2 3
143 217 169 257 16 24 -10 11 -40 -20z"/>
<path d="M6278 7897 c-15 -12 -47 -49 -71 -82 -24 -33 -62 -82 -85 -108 -42
-48 -54 -87 -28 -87 8 0 45 44 82 98 37 53 83 116 102 139 39 49 39 73 0 40z"/>
<path d="M6437 7879 c-27 -20 -184 -226 -220 -287 -11 -18 -17 -36 -13 -39 11
-11 47 30 108 122 33 50 77 110 97 135 60 74 64 80 59 85 -3 3 -17 -4 -31 -16z"/>
<path d="M6608 7879 c-35 -26 -95 -109 -95 -131 0 -27 6 -22 23 17 8 20 18 33
23 31 5 -3 27 17 50 44 44 52 43 71 -1 39z"/>
<path d="M6800 7891 c-23 -14 -133 -158 -136 -178 -2 -10 -15 -27 -31 -38 -33
-24 -123 -117 -123 -127 0 -15 15 -7 52 25 58 52 139 155 125 160 -6 3 -2 6
11 6 20 1 27 11 23 34 -1 5 3 6 9 2 11 -7 120 99 120 116 0 11 -30 11 -50 0z"/>
<path d="M4610 7870 c0 -11 4 -20 9 -20 5 0 7 9 4 20 -3 11 -7 20 -9 20 -2 0
-4 -9 -4 -20z"/>
<path d="M7481 7852 c-5 -9 -14 -44 -20 -76 -6 -33 -18 -67 -26 -76 -21 -23
-19 -30 10 -30 14 0 34 -9 45 -20 36 -36 31 -39 -78 -55 -48 -8 -58 -28 -49
-94 l5 -39 -72 -11 c-39 -6 -114 -16 -167 -21 -89 -9 -200 -42 -186 -56 3 -3
47 3 99 14 51 11 142 25 201 30 59 6 114 16 122 22 11 9 20 8 41 -9 18 -14 41
-21 70 -21 62 0 93 42 101 137 l6 68 181 3 c99 2 182 5 184 7 2 2 1 9 -4 16
-5 9 -53 11 -195 6 -205 -6 -204 -6 -215 52 -6 26 -2 37 22 62 22 23 36 29 69
29 77 0 135 12 135 27 0 12 -17 14 -87 12 -76 -2 -93 1 -123 19 -42 27 -56 27
-69 4z"/>
<path d="M2904 7826 c-10 -25 1 -30 60 -30 91 -1 88 33 -3 42 -41 4 -52 1 -57
-12z"/>
<path d="M6939 7787 c-31 -29 -87 -76 -123 -106 -79 -64 -155 -151 -133 -151
8 0 17 6 20 14 3 7 27 28 53 45 63 43 233 201 240 224 10 31 1 27 -57 -26z"/>
<path d="M4631 7814 c0 -11 3 -14 6 -6 3 7 2 16 -1 19 -3 4 -6 -2 -5 -13z"/>
<path d="M8824 7759 c-10 -12 -62 -50 -115 -84 -52 -35 -110 -77 -128 -94 -28
-26 -31 -33 -21 -52 7 -11 24 -28 39 -36 15 -9 39 -38 54 -64 15 -27 31 -49
35 -49 5 0 17 9 27 20 16 18 17 22 3 38 -24 27 -30 68 -12 82 12 11 17 10 29
-8 22 -30 82 -64 102 -58 10 3 47 32 82 65 57 53 63 61 56 87 -9 39 -96 168
-116 172 -8 1 -24 -7 -35 -19z m28 -126 c25 -22 23 -51 -6 -64 -17 -8 -29 -8
-45 0 -25 14 -26 29 -5 59 18 26 31 28 56 5z"/>
<path d="M4370 7750 c0 -15 59 -116 76 -131 10 -8 18 -9 25 -2 7 7 -1 28 -25
66 -35 54 -76 91 -76 67z"/>
<path d="M4672 7725 c6 -14 17 -25 25 -25 11 0 10 6 -4 25 -23 32 -36 32 -21
0z"/>
<path d="M4198 7718 c11 -13 46 -52 77 -88 31 -36 61 -66 66 -68 18 -7 9 28
-11 40 -11 7 -20 16 -20 20 0 4 -10 18 -22 31 -13 13 -31 38 -40 55 -13 24
-24 32 -44 32 l-26 0 20 -22z"/>
<path d="M6485 7730 c-3 -5 -1 -10 4 -10 6 0 11 5 11 10 0 6 -2 10 -4 10 -3 0
-8 -4 -11 -10z"/>
<path d="M4000 7724 c0 -3 12 -20 27 -38 21 -25 25 -27 21 -10 -3 12 -1 29 4
38 7 13 4 16 -22 16 -16 0 -30 -3 -30 -6z"/>
<path d="M3740 7711 c0 -14 95 -96 180 -158 41 -29 92 -68 113 -85 29 -25 40
-29 50 -19 16 16 -30 59 -192 179 -118 86 -151 105 -151 83z"/>
<path d="M3362 7647 c-9 -10 -3 -16 26 -27 81 -28 225 -141 372 -291 90 -92
232 -157 185 -85 -9 13 -39 36 -68 51 -28 16 -66 38 -83 49 -29 20 -185 158
-225 200 -10 10 -22 15 -28 12 -6 -4 -9 -1 -5 7 8 23 -102 97 -144 97 -11 0
-24 -6 -30 -13z"/>
<path d="M4075 7640 c10 -11 20 -20 23 -20 3 0 -3 9 -13 20 -10 11 -20 20 -23
20 -3 0 3 -9 13 -20z"/>
<path d="M6420 7651 c0 -5 -20 -31 -43 -57 -55 -61 -74 -94 -54 -94 22 0 57
35 57 57 0 11 14 39 30 61 17 23 26 42 20 42 -5 0 -10 -4 -10 -9z"/>
<path d="M2718 7637 c10 -11 55 -15 225 -19 185 -5 219 -8 267 -27 30 -11 55
-21 55 -21 0 0 0 13 1 29 1 21 -5 31 -20 37 -12 4 -138 9 -280 11 -227 4 -258
3 -248 -10z"/>
<path d="M7298 7635 c-11 -11 -203 -24 -212 -14 -6 5 -18 9 -28 9 -26 0 -109
-44 -132 -69 -23 -25 -10 -28 17 -3 16 13 19 14 15 2 -2 -8 -24 -30 -49 -47
-83 -62 -84 -63 -4 -16 141 83 179 101 223 106 34 4 47 1 59 -13 14 -16 20
-17 77 -3 71 16 86 27 58 42 -10 6 -22 8 -24 6z"/>
<path d="M3692 7573 c51 -70 113 -122 309 -262 16 -11 20 -11 25 3 9 24 -22
54 -152 151 -153 115 -215 151 -182 108z"/>
<path d="M4138 7562 c12 -16 37 -41 56 -55 29 -23 36 -24 46 -12 10 12 9 15
-8 15 -11 0 -31 12 -44 28 -13 15 -35 33 -47 40 l-24 14 21 -30z"/>
<path d="M1703 7558 c-25 -27 -48 -72 -57 -111 -6 -24 -1 -37 27 -70 78 -96
127 -179 127 -214 0 -37 32 -109 52 -116 25 -8 38 6 38 41 0 19 -6 43 -14 51
-29 34 -29 60 1 89 15 16 37 33 47 39 14 8 21 27 27 72 9 79 28 108 76 116 60
9 85 19 97 37 19 31 -19 47 -109 48 -44 0 -118 9 -165 20 -109 25 -122 25
-147 -2z m151 -106 c7 -11 -15 -82 -25 -82 -13 0 -29 36 -29 64 0 21 5 26 24
26 14 0 27 -4 30 -8z"/>
<path d="M4830 7553 c-14 -2 -80 -17 -147 -33 -129 -31 -225 -73 -356 -157
-98 -62 -251 -218 -311 -317 -97 -161 -145 -378 -125 -570 9 -90 26 -156 41
-156 4 0 16 17 27 38 10 20 33 50 50 66 31 29 31 31 31 131 0 211 79 393 240
554 132 133 272 207 480 256 63 15 120 29 126 30 24 7 -1 169 -25 164 -3 -1
-17 -4 -31 -6z"/>
<path d="M5743 7479 c-8 -47 -8 -67 0 -76 7 -7 50 -26 97 -43 47 -17 109 -45
138 -61 l53 -30 45 45 c24 25 54 48 65 51 30 10 20 26 -47 70 -68 47 -191 90
-280 100 l-61 7 -10 -63z"/>
<path d="M2632 7473 c3 -16 16 -18 93 -19 50 0 180 -4 290 -7 179 -7 297 1
255 15 -28 11 -345 28 -493 28 -136 0 -148 -1 -145 -17z"/>
<path d="M3370 7462 c0 -13 93 -45 117 -40 14 2 11 7 -11 22 -33 21 -106 34
-106 18z"/>
<path d="M7603 7463 c-13 -2 -23 -10 -23 -16 0 -14 424 -1 450 13 15 9 -382
12 -427 3z"/>
<path d="M8974 7430 c-32 -22 -75 -50 -94 -63 -19 -13 -56 -36 -82 -51 -27
-15 -48 -33 -48 -40 0 -7 13 -24 29 -39 21 -18 33 -41 41 -82 6 -30 22 -68 34
-82 23 -26 24 -27 49 -10 15 9 42 42 62 72 40 64 59 68 100 25 35 -37 45 -37
78 -5 38 38 50 101 32 163 -17 56 -95 152 -124 152 -10 0 -44 -18 -77 -40z
m103 -102 c27 -25 32 -85 8 -95 -34 -13 -84 62 -65 98 14 25 28 24 57 -3z
m-144 -65 c3 -5 8 -23 12 -41 l7 -34 -31 17 c-33 16 -39 33 -19 53 14 14 25
15 31 5z"/>
<path d="M4115 7419 c-10 -15 3 -25 16 -12 7 7 7 13 1 17 -6 3 -14 1 -17 -5z"/>
<path d="M6418 7355 c-79 -20 -135 -48 -204 -103 -212 -171 -283 -432 -184
-679 51 -127 111 -204 340 -438 186 -189 221 -230 252 -292 46 -92 61 -166 56
-268 -8 -145 -72 -246 -201 -316 -59 -32 -67 -34 -162 -34 -86 0 -106 3 -145
24 -123 65 -189 157 -198 272 -6 84 9 139 53 200 77 106 242 122 290 28 26
-49 16 -81 -30 -102 -110 -49 -110 -49 -113 -93 -3 -36 1 -45 33 -73 31 -27
43 -31 91 -31 128 0 214 99 214 248 0 82 -29 149 -93 213 -141 142 -356 125
-515 -39 -139 -145 -169 -352 -79 -544 79 -170 223 -270 428 -299 164 -22 330
32 462 151 74 68 120 150 152 272 33 126 5 339 -63 473 -44 89 -114 177 -261
330 -280 291 -340 379 -349 518 -16 253 196 442 421 375 85 -26 148 -122 133
-204 -14 -71 -77 -74 -114 -6 -13 24 -34 50 -47 58 -21 14 -27 14 -55 -1 -68
-35 -89 -123 -47 -205 28 -56 85 -97 158 -112 53 -11 60 -10 111 15 78 38 129
87 163 153 25 49 30 70 30 134 0 67 -4 84 -33 142 -63 123 -169 206 -299 233
-82 18 -121 18 -195 0z"/>
<path d="M2503 7305 c-33 -24 -46 -23 752 -40 132 -3 294 -7 360 -10 117 -5
119 -5 85 11 -62 29 -276 42 -738 46 -322 3 -448 1 -459 -7z"/>
<path d="M7285 7296 c-215 -13 -255 -19 -255 -38 0 -8 75 -9 263 -3 144 4 345
9 447 11 102 2 206 7 233 10 91 12 46 24 -90 24 -76 0 -194 2 -263 4 -69 3
-219 -1 -335 -8z"/>
<path d="M1516 7174 c-60 -75 -102 -208 -76 -239 28 -34 49 -18 90 67 43 89
56 135 46 172 -9 37 -30 37 -60 0z"/>
<path d="M8160 7167 l-45 -12 -1 -505 c-2 -691 0 -627 -29 -655 -28 -29 -51
-32 -57 -7 -3 10 -1 161 5 335 6 186 6 322 1 327 -5 5 -45 2 -92 -7 -69 -14
-83 -20 -87 -37 -2 -12 -6 -159 -9 -328 -3 -210 -8 -314 -16 -330 -25 -47 -62
-78 -97 -78 -57 0 -58 8 -55 374 4 315 3 328 -15 322 -10 -4 -47 -14 -81 -21
-35 -8 -67 -17 -70 -20 -4 -4 -7 -160 -7 -348 l0 -342 27 -47 c42 -71 93 -108
148 -108 58 0 136 37 182 85 l36 38 27 -21 c15 -12 35 -22 44 -22 36 0 119 51
146 90 26 38 45 51 45 31 0 -18 68 -51 106 -51 51 0 117 34 154 78 l30 36 47
-17 c92 -33 194 -16 250 42 l36 36 -7 -45 c-17 -117 -93 -194 -247 -253 -52
-19 -113 -41 -135 -46 -53 -14 -361 -75 -484 -96 -121 -20 -415 -89 -500 -117
-179 -58 -323 -146 -415 -254 -74 -88 -95 -131 -95 -197 0 -51 3 -57 41 -91
22 -21 48 -36 57 -34 9 2 31 31 48 65 98 197 283 310 649 393 94 22 229 49
300 60 72 11 177 32 235 45 58 13 141 31 185 40 155 32 333 122 414 211 52 57
114 173 130 244 23 102 7 229 -42 329 -18 35 -69 111 -115 170 -92 118 -135
196 -126 226 4 11 26 41 50 67 51 54 53 69 19 103 -20 21 -34 25 -80 25 -66 0
-113 -18 -148 -56 -54 -58 -73 -182 -41 -260 25 -60 14 -152 -29 -246 -20 -42
-48 -116 -62 -163 -26 -86 -47 -112 -76 -95 -16 11 -16 5 -9 683 6 496 9 467
-60 466 -19 0 -55 -6 -80 -12z m511 -850 c102 -155 91 -222 -43 -242 -39 -6
-49 -4 -67 14 -12 12 -21 30 -21 40 0 25 37 51 72 51 35 0 35 9 -1 95 -32 76
-52 151 -43 160 10 10 45 -30 103 -118z"/>
<path d="M2419 7148 c-11 -4 -18 -12 -15 -16 11 -17 1445 -36 1462 -19 4 4 4
10 0 14 -13 14 -1413 33 -1447 21z"/>
<path d="M7147 7140 c-42 -3 -78 -9 -80 -15 -1 -7 143 -11 413 -13 358 -2 412
0 400 12 -12 11 -76 15 -335 18 -176 1 -355 1 -398 -2z"/>
<path d="M9054 7091 c-77 -56 -114 -115 -114 -179 0 -38 37 -107 65 -122 22
-12 27 -11 46 6 22 19 21 16 3 136 -5 37 -3 54 11 74 16 25 20 26 77 20 67 -7
98 -20 98 -41 0 -30 19 -14 26 20 8 43 -9 65 -70 95 -58 28 -96 25 -142 -9z"/>
<path d="M2300 6978 l-25 -11 30 -6 c53 -11 1495 -7 1495 4 1 19 -150 24 -810
23 -441 0 -673 -3 -690 -10z"/>
<path d="M7075 6979 c-15 -24 62 -28 436 -24 215 2 394 6 397 9 3 3 2 9 -2 13
-11 12 -824 14 -831 2z"/>
<path d="M1381 6878 c-17 -17 -31 -38 -31 -48 0 -21 87 -69 185 -100 39 -13
87 -31 108 -42 30 -15 42 -17 53 -7 14 11 41 87 33 92 -2 1 -58 20 -123 41
-70 22 -129 48 -142 61 -35 35 -49 36 -83 3z"/>
<path d="M3105 6829 c-848 -13 -835 -12 -835 -27 0 -11 133 -12 743 -6 652 6
775 10 756 28 -12 11 -200 12 -664 5z"/>
<path d="M7066 6815 c-18 -13 -17 -14 5 -19 13 -3 170 -7 349 -11 329 -5 440
1 467 28 21 21 -792 23 -821 2z"/>
<path d="M9190 6813 c-30 -11 -53 -39 -87 -106 -76 -153 -43 -276 84 -313 111
-32 199 1 243 92 24 48 27 139 7 187 -42 98 -167 169 -247 140z m121 -123 c24
-13 49 -61 49 -95 0 -64 -64 -124 -119 -110 -36 9 -58 31 -71 71 -26 78 71
171 141 134z"/>
<path d="M1307 6713 c-4 -3 -7 -16 -7 -28 0 -21 6 -22 106 -29 59 -4 109 -4
112 -1 12 11 -18 28 -84 46 -71 20 -116 24 -127 12z"/>
<path d="M2913 6670 c-68 -4 -126 -9 -129 -13 -4 -4 5 -11 20 -16 17 -7 81 -7
193 0 93 6 300 9 461 6 280 -4 329 0 291 24 -16 10 -651 9 -836 -1z"/>
<path d="M7028 6652 c-39 -3 -50 -15 -22 -26 30 -11 412 -7 439 6 14 6 25 14
25 17 0 6 -373 9 -442 3z"/>
<path d="M2250 6619 c-189 -48 -318 -150 -429 -339 -85 -144 -106 -215 -106
-355 0 -102 2 -115 31 -175 41 -87 80 -130 154 -169 l60 -32 -25 -47 c-39 -73
-31 -118 25 -147 41 -21 55 -19 94 16 20 17 40 28 46 24 7 -4 10 -194 10 -571
0 -637 -8 -579 81 -578 60 1 108 21 115 48 3 12 4 270 2 574 l-3 554 45 -7
c25 -4 59 -13 76 -20 47 -19 111 -82 124 -119 7 -23 10 -203 8 -567 -2 -402 0
-541 9 -561 23 -52 100 -49 133 5 17 27 20 50 20 157 0 69 9 251 21 405 22
300 22 549 -2 618 -18 54 -82 123 -147 160 l-55 31 24 15 c153 100 243 209
305 369 10 26 9 -101 -6 -738 -5 -223 -7 -415 -4 -428 6 -21 11 -23 48 -17 94
14 105 18 110 32 3 8 11 134 16 281 6 147 15 293 20 326 11 67 43 117 90 136
28 12 33 11 53 -9 21 -21 22 -30 27 -329 3 -169 9 -313 13 -319 15 -23 80 -15
128 15 64 41 99 86 99 128 0 32 -2 34 -35 34 -41 0 -38 -29 -39 290 -1 214 -2
227 -24 272 -26 52 -79 104 -116 114 -35 8 -98 -12 -156 -51 l-51 -34 6 49 c3
28 7 71 10 98 7 66 -11 224 -27 233 -22 14 -108 21 -121 11 -9 -8 -11 13 -9
93 6 166 -36 272 -152 389 -134 135 -311 183 -496 135z m243 -205 c56 -19 129
-81 162 -137 37 -65 51 -161 36 -247 -19 -105 -62 -183 -150 -271 -74 -74
-120 -101 -216 -125 l-25 -6 6 306 c8 352 17 328 -95 271 -108 -54 -101 -32
-101 -299 0 -164 -3 -235 -12 -244 -9 -9 -23 -5 -61 15 -47 26 -89 75 -114
134 -35 81 -22 215 32 325 34 70 128 184 187 226 88 62 250 87 351 52z"/>
<path d="M1240 6551 c-31 -58 0 -86 127 -118 58 -15 107 -33 121 -46 30 -28
29 -78 -2 -113 -29 -34 -55 -35 -177 -5 -114 28 -127 27 -140 -6 -21 -57 -13
-64 111 -95 140 -35 194 -33 253 8 60 43 82 86 81 161 -1 119 -62 170 -251
212 -113 25 -110 25 -123 2z"/>
<path d="M3062 6520 c-88 -10 -102 -15 -102 -36 0 -12 5 -14 18 -8 9 4 189 9
400 12 349 4 383 5 380 20 -3 15 -34 17 -313 18 -171 1 -343 -2 -383 -6z"/>
<path d="M4547 6523 c-24 -3 -42 -12 -52 -26 -14 -23 -30 -127 -41 -280 -6
-84 -7 -87 -32 -93 -15 -3 -55 -12 -89 -20 -34 -8 -66 -14 -70 -14 -4 0 -7 56
-5 125 l4 125 -34 0 c-19 0 -58 -7 -87 -16 -78 -23 -91 -51 -89 -183 l1 -104
-36 -30 c-20 -16 -37 -35 -37 -43 0 -18 40 -54 61 -54 13 0 19 -11 23 -42 13
-110 26 -337 26 -456 0 -128 -1 -134 -25 -157 -13 -14 -33 -25 -43 -25 -17 0
-19 12 -25 167 -4 91 -7 245 -7 340 l0 175 -42 -6 c-24 -4 -62 -12 -85 -18
l-43 -11 -2 -71 c0 -39 0 -179 1 -311 3 -271 -3 -304 -59 -342 -41 -29 -81
-29 -106 -2 -18 20 -19 41 -19 348 l0 326 -30 -1 c-16 -1 -56 -7 -89 -14 l-58
-12 4 -351 c4 -396 2 -385 82 -468 67 -70 117 -71 239 -7 31 17 60 29 63 25 3
-3 -6 -27 -20 -54 -23 -46 -28 -50 -78 -61 -148 -34 -238 -90 -238 -148 0 -78
81 -135 199 -142 101 -6 162 19 229 93 62 67 73 104 79 255 6 136 10 150 72
220 l40 45 28 -26 c76 -70 131 -78 206 -28 48 32 96 82 98 102 1 7 4 -4 8 -23
5 -29 11 -36 33 -38 14 -2 44 6 66 17 l40 21 4 77 c2 43 5 179 6 302 2 122 7
233 12 246 10 27 47 57 91 75 29 12 33 12 49 -7 15 -19 18 -58 22 -306 4 -196
9 -291 18 -307 11 -21 17 -22 67 -16 92 11 86 -7 89 257 2 153 8 253 17 288
l13 54 12 -65 c7 -36 12 -74 12 -84 0 -11 5 -37 11 -59 11 -39 12 -39 21 -15
5 14 8 86 6 160 -3 117 0 140 15 163 33 50 67 32 81 -43 6 -33 -6 -303 -20
-472 l-7 -78 41 0 c32 0 45 5 56 23 27 40 44 148 51 316 4 91 14 190 22 220
27 104 84 174 117 141 8 -8 11 -94 11 -293 0 -206 3 -290 13 -311 12 -27 15
-28 70 -24 106 8 156 49 162 133 4 53 2 55 -43 55 -54 0 -67 13 -67 66 0 53
26 219 46 296 20 76 20 138 1 175 -30 58 -115 113 -173 113 -34 0 -106 -46
-163 -104 l-44 -45 -36 30 c-58 48 -83 41 -170 -46 -72 -73 -91 -86 -91 -65 0
23 -65 50 -123 50 -69 0 -116 -18 -145 -55 -12 -16 -24 -26 -26 -24 -7 7 13
349 24 408 5 29 8 56 6 60 -5 8 -63 10 -119 4z m-97 -813 l0 -298 -46 -46
c-53 -53 -88 -66 -112 -42 -15 14 -17 45 -20 209 -1 106 -3 240 -5 299 l-2
108 65 19 c36 11 75 29 85 39 11 11 23 18 28 15 4 -2 7 -139 7 -303z m-640
-895 c0 -40 -3 -47 -27 -56 -31 -12 -84 -1 -90 18 -5 13 84 82 105 83 8 0 12
-16 12 -45z"/>
<path d="M7093 6399 c-61 -30 -136 -105 -167 -166 -43 -86 -59 -174 -60 -318
0 -144 18 -221 69 -294 59 -87 180 -115 287 -68 148 66 249 286 235 516 -5 82
-10 104 -42 169 -41 82 -98 146 -151 168 -49 20 -122 18 -171 -7z m115 -217
c113 -73 102 -381 -17 -459 -47 -32 -74 -29 -110 12 -44 51 -54 95 -49 226 3
92 9 124 28 168 34 76 84 94 148 53z"/>
<path d="M3156 6369 c-65 -4 -123 -12 -127 -16 -4 -4 163 -8 372 -8 332 0 379
2 377 15 -3 13 -40 15 -253 16 -138 1 -304 -2 -369 -7z"/>
<path d="M9370 6279 c-23 -38 -26 -48 -40 -138 -12 -79 -21 -91 -58 -70 -23
13 -27 21 -26 59 1 25 5 64 9 87 4 23 5 49 1 58 -5 14 -9 14 -34 1 -52 -27
-85 -132 -62 -200 6 -20 31 -53 57 -76 38 -33 53 -40 89 -40 34 0 48 6 73 31
30 30 40 57 57 153 19 104 57 50 53 -74 -3 -89 12 -101 62 -50 30 29 31 34 27
98 -2 50 -9 76 -26 100 -33 46 -84 82 -125 89 -32 5 -38 2 -57 -28z"/>
<path d="M3242 6223 c-140 -3 -183 -6 -179 -16 3 -9 88 -12 365 -12 198 0 364
3 368 8 4 4 4 10 0 15 -8 7 -249 10 -554 5z"/>
<path d="M3215 6072 c-46 -6 -48 -8 -28 -19 15 -9 65 -13 155 -12 143 0 203
11 133 22 -65 11 -206 16 -260 9z"/>
<path d="M1133 6028 c-24 -36 -28 -53 -31 -127 -4 -95 8 -135 55 -191 72 -86
190 -76 278 22 57 62 79 120 72 190 -9 101 -39 131 -135 140 l-37 3 -22 -65
c-25 -73 -30 -130 -10 -130 22 0 36 15 56 63 11 26 25 47 30 47 15 0 24 -45
18 -90 -10 -78 -77 -130 -147 -115 -67 15 -87 89 -54 206 19 68 14 89 -21 89
-18 0 -32 -11 -52 -42z"/>
<path d="M9313 5784 c-18 -13 -20 -19 -11 -45 5 -16 28 -43 49 -60 32 -25 46
-30 69 -25 18 3 30 1 30 -5 0 -6 5 -7 10 -4 6 4 10 12 9 18 -3 16 12 50 25 59
17 11 -5 40 -45 60 -41 22 -106 22 -136 2z"/>
<path d="M5600 5371 l-35 -6 0 -302 c0 -188 4 -306 10 -311 18 -17 73 -2 80
22 9 30 19 548 11 580 -7 27 -8 27 -66 17z"/>
<path d="M5457 5323 c-16 -4 -17 -24 -15 -291 l3 -287 33 -3 32 -3 0 295 c0
322 3 304 -53 289z"/>
<path d="M1425 5303 c-104 -14 -189 -54 -266 -126 -89 -82 -129 -156 -148
-278 -20 -123 32 -253 145 -360 50 -47 72 -61 154 -97 104 -45 168 -52 265
-27 88 23 140 53 205 116 78 77 105 116 118 168 9 37 8 48 -6 67 -10 14 -28
23 -43 24 -25 0 -26 2 -32 73 -3 47 -1 74 6 79 6 4 12 23 13 43 1 37 23 63 35
43 4 -7 9 -7 14 1 4 7 2 18 -4 25 -6 7 -8 15 -5 19 10 9 -108 126 -123 120 -7
-3 -13 1 -13 10 0 17 -71 60 -134 81 -47 16 -137 25 -181 19z m87 -295 c46
-13 113 -83 121 -125 6 -33 -4 -99 -21 -130 -28 -51 -111 -89 -171 -77 -46 10
-118 77 -133 126 -23 76 15 157 92 199 42 22 60 23 112 7z m-287 -394 c14 -14
24 -28 21 -31 -5 -5 -56 42 -56 52 0 10 9 5 35 -21z"/>
<path d="M1427 4892 c-10 -10 -17 -33 -17 -51 0 -27 5 -34 36 -47 32 -13 38
-13 60 1 13 8 27 27 30 42 6 21 2 31 -20 50 -33 28 -67 30 -89 5z"/>
<path d="M5331 5301 l-23 -6 1 -270 c2 -292 4 -305 52 -287 l24 10 -1 278 c-1
301 1 291 -53 275z"/>
<path d="M9043 5286 c-57 -18 -115 -55 -107 -68 4 -6 2 -8 -4 -4 -6 3 -18 -4
-26 -16 -9 -12 -16 -19 -16 -14 0 5 -7 3 -15 -4 -8 -7 -12 -16 -9 -21 3 -5 0
-8 -7 -7 -18 4 -69 -75 -95 -150 -16 -46 -24 -89 -24 -137 0 -191 87 -328 264
-416 l89 -44 116 0 116 0 87 43 c58 28 97 54 115 78 15 19 38 47 51 62 54 62
92 168 92 256 0 92 -51 247 -70 216 -5 -9 -9 -9 -14 -1 -4 6 -2 11 3 11 48 0
-94 151 -184 195 -56 28 -68 30 -190 32 -88 2 -144 -2 -172 -11z m107 -63 c-1
-19 -19 -30 -74 -46 -33 -9 -62 -14 -65 -12 -8 9 5 15 55 24 27 5 53 16 59 25
10 17 25 22 25 9z m117 -214 c60 -29 79 -59 64 -100 -9 -26 -8 -36 4 -49 9
-10 15 -36 15 -61 0 -38 -5 -50 -32 -76 -72 -70 -174 -70 -222 -1 -41 58 4
100 62 58 38 -28 107 -25 107 4 0 13 -11 23 -34 31 -45 15 -49 30 -16 65 17
17 25 35 22 44 -9 23 -60 20 -82 -4 -23 -25 -37 -25 -59 -1 -16 17 -16 23 -4
48 14 31 69 63 107 63 14 0 44 -10 68 -21z m283 -39 c0 -5 -2 -10 -4 -10 -3 0
-8 5 -11 10 -3 6 -1 10 4 10 6 0 11 -4 11 -10z m12 -59 c2 -22 0 -37 -4 -35
-8 5 -11 74 -4 74 2 0 6 -18 8 -39z m-632 -266 c33 -30 44 -55 25 -55 -10 0
-13 5 -9 12 5 8 0 9 -15 5 -18 -4 -25 2 -40 36 -11 23 -22 60 -26 82 l-7 40
25 -50 c13 -27 34 -59 47 -70z"/>
<path d="M5203 5260 c-23 -9 -23 -10 -23 -252 0 -134 4 -249 9 -256 4 -8 20
-12 35 -10 l27 3 -1 254 c0 140 -3 258 -6 262 -6 11 -12 10 -41 -1z"/>
<path d="M5072 5215 l-32 -14 2 -228 3 -228 43 -3 42 -3 -2 242 c-2 151 -7
243 -13 245 -5 2 -25 -3 -43 -11z"/>
<path d="M4921 5164 l-23 -17 5 -181 c6 -222 8 -228 56 -224 l36 3 3 145 c2
80 0 178 -3 218 -6 65 -9 72 -29 72 -12 0 -32 -7 -45 -16z"/>
<path d="M7630 5159 c-16 -29 -4 -72 18 -65 39 11 111 18 131 11 13 -4 21 -15
21 -29 0 -18 -14 -29 -72 -57 -63 -29 -76 -40 -96 -79 -14 -27 -22 -58 -20
-79 l3 -33 75 -4 c100 -5 145 3 180 33 34 28 40 74 14 111 -14 21 -14 27 0 69
15 43 15 48 -2 76 -28 48 -75 67 -164 67 -68 0 -79 -2 -88 -21z m194 -195 c19
-7 21 -49 4 -60 -6 -4 -34 -7 -61 -6 -88 2 -97 42 -14 61 56 12 53 12 71 5z"/>
<path d="M8065 5154 c-9 -9 -15 -26 -13 -38 3 -20 8 -21 96 -18 86 3 92 2 92
-16 0 -20 -52 -52 -84 -52 -10 0 -16 -9 -16 -24 0 -22 6 -25 52 -33 45 -7 54
-12 62 -36 17 -48 -6 -53 -134 -31 -23 3 -42 0 -55 -9 -20 -15 -20 -16 4 -41
27 -29 113 -51 157 -40 50 12 83 33 99 64 22 43 19 68 -15 110 l-30 38 17 45
c16 42 16 47 0 71 -17 25 -21 26 -117 26 -78 0 -102 -3 -115 -16z"/>
<path d="M6702 5009 c-18 -6 -35 -16 -39 -25 -7 -18 53 -187 77 -217 15 -19
22 -20 56 -12 24 6 40 17 42 27 4 20 -53 180 -76 216 -16 24 -14 24 -60 11z"/>
<path d="M3324 4526 c-41 -18 -64 -52 -64 -93 0 -40 22 -63 90 -98 35 -18 50
-31 50 -45 0 -29 -26 -35 -63 -15 -44 23 -71 17 -75 -18 -3 -24 2 -30 40 -47
59 -27 100 -25 137 6 36 30 49 80 29 120 -7 15 -40 46 -72 68 -33 23 -61 47
-64 54 -5 15 49 17 65 1 16 -16 67 -7 71 13 2 10 -9 29 -24 43 -30 28 -71 32
-120 11z"/>
<path d="M5785 4521 c-70 -43 -115 -109 -115 -169 0 -33 40 -97 83 -132 26
-21 42 -25 92 -25 52 0 67 4 99 29 86 65 95 165 23 243 -68 74 -123 91 -182
54z m95 -76 c32 -17 60 -61 60 -95 0 -12 -13 -35 -29 -51 -23 -22 -39 -29 -70
-29 -89 0 -126 96 -62 161 33 33 58 36 101 14z"/>
<path d="M6114 4526 c-40 -18 -64 -52 -64 -92 0 -42 28 -75 89 -104 53 -24 62
-39 35 -61 -13 -10 -20 -10 -44 4 -38 23 -67 21 -80 -4 -14 -25 -3 -41 44 -63
73 -34 146 -8 176 63 10 26 9 36 -6 68 -18 36 -31 46 -99 75 -51 22 -38 42 30
48 47 4 61 9 63 23 3 12 -9 23 -40 37 -51 23 -63 24 -104 6z"/>
<path d="M6749 4517 c-61 -33 -109 -97 -109 -148 0 -48 11 -72 54 -117 63 -68
116 -78 197 -37 58 30 62 54 11 69 -23 6 -40 5 -57 -4 -60 -32 -136 38 -120
111 9 38 59 72 95 64 83 -21 117 -13 106 22 -8 24 -75 63 -108 63 -14 0 -45
-10 -69 -23z"/>
<path d="M6996 4532 c-2 -4 -7 -59 -10 -122 -6 -105 -5 -118 13 -148 28 -43
77 -72 125 -72 33 0 46 7 87 49 l49 48 0 122 0 121 -34 0 c-30 0 -34 -4 -40
-31 -3 -17 -6 -69 -6 -115 0 -72 -3 -85 -19 -94 -27 -14 -78 -13 -88 3 -4 6
-10 61 -13 121 -5 109 -5 110 -32 117 -16 4 -30 4 -32 1z"/>
<path d="M7693 4524 c-43 -22 -69 -76 -57 -123 7 -28 20 -42 67 -69 37 -23 57
-41 57 -53 0 -23 -36 -25 -64 -4 -11 8 -27 15 -36 15 -19 0 -50 -30 -50 -49 0
-19 64 -41 117 -41 139 0 179 139 55 191 -68 29 -77 35 -77 50 0 11 17 14 70
14 67 0 70 1 70 24 0 17 -10 29 -35 42 -42 23 -75 24 -117 3z"/>
<path d="M8002 4523 c-118 -58 -141 -198 -46 -282 73 -64 151 -63 219 3 77 74
80 158 8 228 -38 37 -98 68 -130 68 -10 0 -33 -8 -51 -17z m107 -78 c33 -16
41 -33 41 -81 0 -49 -14 -71 -54 -84 -47 -15 -84 -3 -107 34 -27 45 -24 82 10
117 33 32 67 37 110 14z"/>
<path d="M8354 4533 c-12 -2 -36 -16 -53 -31 -26 -21 -33 -35 -34 -64 -1 -47
22 -74 91 -104 80 -36 64 -81 -20 -53 -69 22 -106 -24 -47 -60 73 -45 163 -31
194 30 33 63 12 110 -66 146 -56 26 -75 45 -63 64 7 12 51 11 59 -1 15 -25 75
-4 75 27 0 25 -89 56 -136 46z"/>
<path d="M2805 4520 c-11 -19 -16 -145 -8 -230 8 -83 9 -85 36 -88 l27 -3 0
159 c0 137 -2 161 -16 166 -22 8 -32 8 -39 -4z"/>
<path d="M2930 4364 l0 -165 33 3 32 3 5 90 5 90 48 -60 c100 -126 109 -136
125 -133 11 2 19 18 24 43 9 50 10 258 2 279 -4 10 -18 16 -35 16 -27 0 -29
-2 -30 -42 0 -24 -4 -62 -7 -85 l-7 -43 -44 60 c-54 74 -95 110 -127 110 l-24
0 0 -166z"/>
<path d="M3533 4523 c-29 -4 -33 -8 -33 -34 0 -27 2 -29 40 -29 l40 0 0 -136
0 -135 33 3 32 3 3 128 c2 112 5 127 20 128 29 3 56 5 70 7 9 1 12 13 10 35
l-3 32 -90 1 c-49 1 -105 -1 -122 -3z"/>
<path d="M3802 4523 c-22 -4 -22 -5 -20 -166 l3 -162 26 -3 c25 -3 27 0 33 47
9 66 24 66 86 1 69 -72 126 -65 65 8 -32 38 -31 48 5 96 34 44 37 73 15 117
-31 59 -109 82 -213 62z m132 -79 c19 -7 21 -45 4 -62 -7 -7 -29 -12 -50 -12
-32 0 -39 4 -44 25 -10 39 1 55 40 55 19 0 41 -3 50 -6z"/>
<path d="M4070 4415 c0 -123 7 -151 52 -193 58 -53 134 -46 192 18 35 39 36
42 36 123 0 45 3 98 6 118 7 40 -5 50 -48 42 -25 -5 -26 -7 -33 -111 -8 -127
-15 -142 -58 -142 -63 0 -77 29 -77 159 l0 101 -35 0 -35 0 0 -115z"/>
<path d="M4426 4514 c-3 -9 -6 -85 -6 -171 0 -137 2 -154 16 -149 9 3 24 6 35
6 17 0 19 8 19 80 0 44 4 80 9 80 5 0 21 -20 35 -45 16 -26 34 -45 44 -45 9 0
32 23 50 50 17 28 36 50 41 50 4 0 6 -34 3 -74 -6 -96 -3 -103 42 -98 l36 4 0
152 c0 105 -4 156 -12 164 -25 25 -56 13 -104 -43 -26 -30 -53 -55 -59 -55 -6
0 -19 15 -29 33 -11 17 -28 42 -39 55 -24 26 -72 30 -81 6z"/>
<path d="M4820 4520 c-2 -16 1 -315 3 -316 1 -1 52 -3 112 -5 l110 -4 0 35 0
35 -77 3 c-69 2 -78 5 -78 22 0 25 9 30 72 37 57 6 68 15 61 43 -4 14 -19 20
-64 25 -45 5 -60 11 -64 26 -10 32 3 39 75 39 73 0 85 7 76 44 -6 23 -8 24
-116 22 -60 0 -110 -3 -110 -6z"/>
<path d="M5314 4515 c-4 -9 -4 -50 -1 -91 3 -41 2 -74 -2 -74 -3 0 -30 31 -59
70 -58 78 -90 103 -124 98 -23 -3 -23 -5 -26 -160 -2 -152 -2 -158 18 -159 11
-1 26 -2 33 -3 8 -1 13 26 17 93 l5 94 75 -92 c68 -83 110 -115 127 -97 4 4 7
80 8 169 l0 162 -33 3 c-23 2 -34 -2 -38 -13z"/>
<path d="M5437 4523 c-4 -3 -7 -21 -7 -40 0 -31 2 -33 34 -33 22 0 36 -6 40
-16 3 -9 6 -66 6 -128 l0 -113 35 -1 35 -1 0 129 0 130 45 0 45 0 0 40 0 40
-113 0 c-63 0 -117 -3 -120 -7z"/>
<path d="M7320 4363 l0 -169 35 -1 c35 -1 35 -1 35 42 0 24 4 47 10 50 18 11
65 -20 85 -57 19 -36 38 -49 63 -41 18 7 15 37 -8 66 -11 14 -20 27 -20 30 0
3 16 28 35 57 45 67 44 91 -4 143 l-40 42 -95 3 -96 4 0 -169z m171 77 c45
-24 8 -70 -56 -70 -51 0 -57 7 -49 49 6 28 10 31 46 31 22 0 48 -5 59 -10z"/>
<path d="M6387 4383 c-12 -11 -7 -50 7 -62 8 -7 38 -11 72 -9 54 3 58 5 65 32
5 16 6 33 3 38 -6 10 -138 11 -147 1z"/>
<path d="M5189 3958 c-23 -79 -39 -86 -69 -28 -23 45 -26 47 -52 24 -16 -15
-125 -17 -1240 -21 -673 -2 -1252 -5 -1288 -7 -36 -2 -75 -4 -88 -5 -18 -1
-23 -6 -20 -23 l3 -23 450 3 c587 3 1635 -14 1698 -29 44 -10 47 -13 47 -42 0
-17 5 -45 12 -63 l12 -33 335 -3 c553 -5 1333 6 1357 20 17 9 24 25 29 72 4
33 11 62 15 65 4 3 427 5 939 5 l932 0 11 25 c6 14 9 27 7 29 -7 8 -2056 13
-2344 7 -214 -5 -287 -4 -311 6 -29 11 -33 10 -59 -17 -16 -17 -32 -30 -36
-30 -4 0 -14 18 -23 40 -20 51 -40 51 -66 -1 -26 -51 -50 -49 -66 6 -10 37
-15 41 -43 37 -5 -1 -16 -21 -23 -44 -8 -24 -20 -43 -27 -43 -7 0 -23 25 -36
55 -13 30 -28 56 -33 58 -6 2 -16 -16 -23 -40z"/>
<path d="M2615 3753 c-95 -4 -110 -10 -101 -39 6 -18 36 -19 788 -20 431 -1
862 -5 959 -9 175 -8 280 -1 263 15 -16 15 -212 29 -414 28 -112 0 -225 5
-265 12 -69 12 -1018 22 -1230 13z"/>
<path d="M6882 3740 c-83 -19 -49 -35 91 -43 157 -9 1200 3 1211 13 5 6 4 15
-4 25 -11 13 -86 15 -639 14 -344 -1 -641 -5 -659 -9z"/>
<path d="M2913 3590 c-308 -5 -347 -10 -315 -42 9 -9 87 -12 307 -10 229 2
296 -1 299 -11 2 -6 8 -31 13 -54 l10 -42 -253 -3 c-186 -2 -256 -6 -266 -15
-34 -35 0 -38 490 -41 510 -3 642 1 642 23 0 21 -25 25 -168 25 -75 0 -201 3
-279 7 -124 5 -141 8 -130 21 6 8 17 32 22 53 l10 38 248 4 c223 3 270 7 256
22 -25 24 -363 34 -886 25z"/>
<path d="M7348 3591 c-359 -5 -480 -9 -489 -18 -7 -7 -9 -16 -5 -20 4 -5 284
-9 621 -11 567 -2 613 -1 619 14 17 44 27 44 -746 35z"/>
<path d="M4373 3422 c-44 -3 -93 -38 -93 -67 0 -19 5 -19 36 2 22 14 49 15
207 11 100 -4 227 -3 282 1 55 4 240 3 410 -1 398 -10 724 7 652 35 -41 16
-428 24 -867 19 -140 -2 -329 -2 -420 0 -91 2 -184 2 -207 0z"/>
<path d="M6126 3420 c-39 -12 -76 -49 -76 -76 0 -30 17 -40 25 -14 11 34 63
54 138 54 37 0 67 3 67 8 0 4 -13 14 -30 23 -32 16 -79 18 -124 5z"/>
<path d="M6868 3423 c-9 -2 -19 -11 -22 -18 -12 -31 65 -35 600 -33 l529 3 3
28 3 27 -548 -1 c-301 -1 -555 -3 -565 -6z"/>
<path d="M2867 3253 c-33 -4 -38 -8 -35 -26 l3 -22 465 0 c256 0 477 3 493 8
36 10 34 23 -5 31 -38 7 -863 15 -921 9z"/>
<path d="M4405 3247 c-55 -12 -58 -14 -38 -25 23 -13 133 -16 196 -6 36 6 37
7 17 21 -28 20 -105 24 -175 10z"/>
<path d="M5252 3248 c5 -15 88 -24 88 -10 0 5 -14 12 -31 16 -47 9 -61 7 -57
-6z"/>
<path d="M6950 3250 c-96 -12 -120 -34 -47 -45 23 -3 240 -5 482 -3 l440 3 0
25 0 25 -410 1 c-225 1 -435 -2 -465 -6z"/>
<path d="M5465 3240 c3 -5 44 -10 90 -10 46 0 87 5 90 10 4 6 -28 10 -90 10
-62 0 -94 -4 -90 -10z"/>
<path d="M4728 3233 c7 -3 16 -2 19 1 4 3 -2 6 -13 5 -11 0 -14 -3 -6 -6z"/>
<path d="M4760 3230 c0 -5 7 -7 15 -4 8 4 15 8 15 10 0 2 -7 4 -15 4 -8 0 -15
-4 -15 -10z"/>
<path d="M6878 3083 c-27 -4 -45 -30 -30 -45 4 -4 192 -7 418 -6 407 3 409 3
412 24 3 20 -3 21 -95 27 -104 7 -659 7 -705 0z"/>
<path d="M2980 3056 c0 -15 7 -27 18 -29 30 -9 685 1 721 10 41 10 50 28 19
37 -13 3 -188 6 -390 6 l-368 0 0 -24z"/>
<path d="M3940 2782 c0 -38 -3 -110 -7 -161 l-6 -93 29 4 c29 3 29 3 32 81 3
92 20 102 54 32 12 -25 28 -44 34 -43 7 2 28 25 46 52 52 75 58 72 58 -33 0
-90 0 -91 25 -91 l25 0 0 155 0 155 -29 0 c-24 0 -37 -11 -76 -65 -27 -36 -49
-65 -51 -65 -1 0 -18 29 -38 64 -32 57 -53 75 -88 76 -5 0 -8 -31 -8 -68z"/>
<path d="M5941 2825 c-36 -31 -69 -82 -82 -127 -7 -27 -5 -42 17 -86 47 -96
142 -118 220 -50 83 73 86 157 7 229 -34 32 -85 59 -112 59 -11 0 -33 -11 -50
-25z m129 -87 c28 -47 26 -84 -9 -119 -67 -67 -161 -4 -132 90 12 42 38 59 89
60 26 1 36 -5 52 -31z"/>
<path d="M4304 2763 c3 -42 6 -96 6 -121 0 -37 6 -50 34 -78 44 -44 99 -47
146 -8 50 43 60 72 60 184 l0 100 -34 0 c-43 0 -46 -8 -46 -125 0 -86 -2 -95
-22 -109 -30 -21 -44 -20 -68 4 -17 17 -20 33 -20 125 l0 105 -31 0 -32 0 7
-77z"/>
<path d="M4641 2814 c-43 -36 -44 -91 -1 -127 16 -14 43 -28 59 -32 34 -7 45
-28 31 -56 -13 -23 -36 -25 -57 -3 -23 22 -67 14 -71 -13 -3 -17 6 -27 37 -42
55 -29 84 -26 126 10 32 28 36 37 33 73 -2 34 -9 44 -36 61 -110 68 -119 78
-78 96 21 10 30 9 51 -5 49 -32 75 2 32 42 -33 31 -87 29 -126 -4z"/>
<path d="M4860 2680 l0 -160 30 0 30 0 0 123 c0 67 3 139 6 160 l7 37 -37 0
-36 0 0 -160z"/>
<path d="M5039 2789 c-44 -45 -49 -55 -49 -96 0 -53 34 -120 74 -147 37 -24
90 -20 122 7 34 30 27 57 -15 57 -16 0 -33 -4 -36 -10 -11 -18 -43 -10 -64 16
-33 42 -28 89 14 131 34 34 34 34 65 18 25 -13 35 -14 46 -4 37 31 -9 79 -76
79 -24 0 -42 -11 -81 -51z"/>
<path d="M5391 2810 c-16 -17 -33 -39 -36 -51 -10 -31 20 -68 77 -94 58 -27
71 -41 57 -67 -12 -22 -55 -24 -63 -3 -7 20 -65 20 -72 0 -9 -22 11 -42 61
-60 40 -16 45 -16 78 0 19 9 43 31 52 49 26 48 7 92 -51 118 -44 19 -74 43
-74 58 0 22 40 30 74 16 39 -16 46 -13 46 20 0 29 -27 44 -79 44 -31 0 -46 -7
-70 -30z"/>
<path d="M5594 2826 c-13 -34 0 -51 44 -54 l42 -3 0 -107 c0 -59 4 -113 8
-119 4 -7 19 -14 32 -15 l24 -3 -3 118 -3 117 29 0 c37 0 61 18 65 50 l3 25
-118 3 c-96 2 -118 0 -123 -12z"/>
<path d="M6260 2831 l-35 -6 -6 -83 c-6 -83 1 -206 14 -218 15 -15 35 7 41 47
4 23 9 46 12 51 8 12 55 -16 93 -56 20 -21 45 -36 58 -36 13 0 23 2 23 4 0 2
-16 21 -35 42 -42 45 -43 57 -10 96 43 51 24 120 -42 152 -35 17 -53 18 -113
7z m125 -81 c8 -7 15 -21 15 -30 0 -39 -130 -52 -144 -14 -7 18 8 50 26 58 20
8 87 -1 103 -14z"/>
<path d="M6515 2832 c-3 -3 -5 -70 -5 -149 l0 -143 69 0 c38 0 83 -3 100 -6
29 -6 31 -5 31 25 l0 31 -64 0 c-68 0 -81 7 -71 40 5 17 15 20 61 20 51 0 54
1 54 25 0 24 -3 25 -54 25 -52 0 -54 1 -58 30 -6 40 4 45 75 41 l57 -3 0 34 0
34 -95 1 c-52 0 -97 -2 -100 -5z"/>
<path d="M3629 2712 c-37 -33 -34 -62 7 -80 52 -25 114 -8 134 36 10 24 9 29
-15 49 -37 32 -86 30 -126 -5z"/>
<path d="M6915 2717 c-71 -40 -55 -67 54 -88 37 -7 46 -6 57 9 22 29 16 56
-19 80 -41 27 -42 27 -92 -1z"/>
<path d="M4451 2256 c5 -5 122 -50 168 -65 45 -15 183 -14 271 1 62 11 92 24
58 25 -43 2 -265 25 -323 33 -70 9 -182 14 -174 6z"/>
<path d="M5125 2234 c-60 -6 -116 -13 -122 -13 -7 -1 -13 -6 -13 -12 0 -6 8
-8 20 -4 10 3 33 -1 50 -10 17 -9 76 -22 131 -29 109 -14 183 -7 232 20 27 15
95 19 147 9 88 -17 132 -19 282 -12 169 8 225 18 213 38 -5 7 -104 10 -319 9
-190 -2 -338 2 -381 9 -81 12 -94 12 -240 -5z"/>
</g>
</svg>
